<?xml version="1.0" encoding="UTF-8"?>
<svg id="Layer_1" xmlns="http://www.w3.org/2000/svg" viewBox="0 0 2214.88 202.49">
  <defs>
    <style>
      .cls-1 {
        fill: #050606;
      }
    </style>
  </defs>
  <g id="Group_1726">
    <g id="Group_1725">
      <g id="Group_1724">
        <path id="Path_1089" class="cls-1" d="M0,197.88h34.92l18.14-51.16h77.14l18.14,51.16h36.27L110.17,4.61h-36L0,197.88ZM91.49,37.9h.82l28.96,83.1h-59.01l29.23-83.1ZM196.25,197.88h132.1v-29.24h-98.26V4.61h-33.84v193.28ZM344.86,197.88h132.1v-29.24h-98.26V4.61h-33.84v193.28ZM489.95,197.88h11.91v-86.08h66.05c19.49,0,34.47-4.6,44.93-13.81,10.47-9.2,15.7-22.29,15.7-39.25,0-11.55-1.89-20.89-5.68-28.02-3.32-6.58-8.2-12.25-14.21-16.51-5.54-3.82-11.81-6.44-18.41-7.72-5.93-1.19-11.95-1.83-18-1.89h-82.29v193.28ZM501.86,14.89h69.57c9.74,0,17.54,1.58,23.41,4.74,10.26,5.22,17.66,14.75,20.17,25.99.99,4.22,1.54,8.53,1.63,12.86-.02,5.15-.84,10.26-2.44,15.16-1.65,5.09-4.32,9.79-7.85,13.81-4,4.43-8.95,7.9-14.48,10.15-6.05,2.62-13.41,3.92-22.06,3.93h-67.94V14.89ZM643.16,197.88h11.91v-87.98h68.76c11.37,0,20.17,1.53,26.39,4.6,6.23,3.07,10.78,7.13,13.67,12.18,2.95,5.28,4.71,11.15,5.14,17.19.54,6.41.81,12.86.81,19.35,0,6.5.14,12.77.41,18.81.13,5.54,1.57,10.96,4.2,15.84h13.26c-1.55-2.02-2.7-4.31-3.38-6.77-.85-2.88-1.44-5.82-1.76-8.8-.37-3.37-.55-6.76-.54-10.15v-11.1c0-6.33-.36-12.66-1.08-18.95-.63-6.01-2.28-11.87-4.87-17.33-2.62-5.34-6.58-9.91-11.5-13.26-5.14-3.61-12.14-5.96-20.98-7.04v-.54c12.99-2.16,23.14-7.71,30.45-16.65,7.31-8.93,10.96-19.9,10.95-32.88,0-9.38-1.58-17.23-4.73-23.55-3.01-6.13-7.52-11.39-13.13-15.29-5.9-4.01-12.52-6.86-19.49-8.39-7.82-1.76-15.81-2.63-23.82-2.57h-80.67v193.28ZM655.08,99.62V14.89h68.76c6.29-.02,12.55.7,18.67,2.17,5.64,1.3,10.97,3.69,15.7,7.04,4.55,3.29,8.26,7.6,10.83,12.59,2.7,5.14,4.06,11.32,4.06,18.54,0,7.76-1.26,14.44-3.79,20.03-2.33,5.33-5.85,10.05-10.29,13.81-4.57,3.73-9.87,6.45-15.56,7.99-6.39,1.76-13,2.62-19.63,2.57h-68.75ZM975.84,61.59c-3.84-11.81-9.96-22.75-18-32.22-7.94-9.18-17.77-16.52-28.83-21.52C917.65,2.63,904.74,0,890.3,0s-27.39,2.61-38.84,7.85c-11.11,4.97-21,12.32-28.97,21.52-8.04,9.46-14.16,20.4-18,32.22-4.22,12.79-6.33,26.18-6.23,39.65-.1,13.47,2,26.87,6.22,39.66,3.84,11.81,9.95,22.75,18,32.21,7.97,9.2,17.85,16.55,28.97,21.52,11.46,5.23,24.4,7.85,38.84,7.85,14.44,0,27.34-2.61,38.71-7.85,11.06-5,20.9-12.34,28.83-21.52,8.04-9.46,14.16-20.4,18-32.21,4.22-12.79,6.32-26.19,6.23-39.66.1-13.47-2.01-26.86-6.22-39.66M815.59,66.05c3.34-10.52,8.67-20.31,15.7-28.83,6.91-8.25,15.49-14.94,25.17-19.63,9.92-4.87,21.2-7.31,33.83-7.31,12.63,0,23.87,2.44,33.71,7.31,9.63,4.71,18.16,11.4,25.04,19.63,7.03,8.52,12.36,18.3,15.7,28.83,3.67,11.37,5.49,23.25,5.42,35.19.08,11.94-1.75,23.82-5.42,35.19-3.34,10.52-8.67,20.31-15.7,28.83-6.88,8.23-15.41,14.92-25.04,19.63-9.84,4.87-21.07,7.31-33.7,7.31-12.63,0-23.91-2.44-33.83-7.31-9.69-4.68-18.27-11.37-25.17-19.63-7.03-8.52-12.36-18.3-15.7-28.83-3.66-11.37-5.49-23.25-5.41-35.19-.08-11.94,1.75-23.83,5.41-35.19M1000.75,197.88h62.8c15.52,0,28.92-2.48,40.2-7.44,10.77-4.59,20.36-11.59,28.02-20.44,7.57-8.97,13.15-19.44,16.38-30.72,3.61-12.44,5.38-25.34,5.28-38.3.03-12.03-1.38-24.03-4.19-35.73-2.63-11.18-7.56-21.69-14.48-30.86-6.87-9.02-16.03-16.24-27.48-21.65-11.45-5.41-25.84-8.12-43.18-8.12h-63.34v193.27ZM1012.66,187.6V14.89h49.54c5.29.04,10.58.35,15.83.95,5.99.66,11.89,1.98,17.6,3.93,6.04,2.07,11.77,4.94,17.05,8.53,5.82,4.04,10.79,9.19,14.61,15.16,4.64,7.31,8.11,15.31,10.29,23.69,2.62,9.39,3.92,20.66,3.93,33.83,0,16.79-2.3,30.73-6.9,41.83s-10.6,19.94-18,26.53c-7.13,6.44-15.59,11.24-24.77,14.08-8.81,2.75-17.98,4.17-27.21,4.2h-51.97ZM1174.53,4.61v115.86c0,4.33.18,9.34.54,15.02.41,5.95,1.4,11.85,2.98,17.6,1.7,6.23,4.06,12.27,7.04,18,3.14,6.04,7.41,11.42,12.59,15.84,5.97,4.97,12.8,8.78,20.17,11.23,8.12,2.89,17.87,4.33,29.24,4.33,14.44,0,26.48-2.12,36.14-6.36,9.06-3.79,17.02-9.79,23.15-17.46,5.91-7.68,10.11-16.54,12.31-25.99,2.51-10.55,3.74-21.37,3.66-32.22V4.61h-11.91v115.86c.11,10.02-.98,20.02-3.25,29.78-1.87,8.22-5.52,15.94-10.69,22.61-5.16,6.37-11.87,11.31-19.49,14.35-8.03,3.34-18,5.01-29.91,5.01-9.39,0-17.37-1.22-23.96-3.66-6.12-2.16-11.77-5.47-16.65-9.74-4.39-3.9-8.02-8.58-10.7-13.81-4.97-9.74-7.96-20.36-8.79-31.26-.36-5.05-.54-9.47-.54-13.27V4.61h-11.91ZM1348.59,140.91c3.84,11.81,9.95,22.75,18,32.21,7.97,9.2,17.85,16.55,28.96,21.52,11.46,5.23,24.4,7.85,38.84,7.85,10.32.07,20.54-1.96,30.05-5.95,9.26-3.89,17.67-9.54,24.77-16.65,7.29-7.35,13.24-15.92,17.6-25.31,4.69-10.07,7.57-20.88,8.53-31.94h-11.91c-.54,9.02-2.69,17.86-6.36,26.12-3.58,8.21-8.57,15.72-14.75,22.2-6.16,6.42-13.46,11.65-21.52,15.43-8.25,3.89-17.28,5.88-26.4,5.82-12.63,0-23.91-2.44-33.83-7.31-9.69-4.68-18.27-11.37-25.18-19.63-7.03-8.52-12.36-18.3-15.7-28.83-3.66-11.37-5.49-23.25-5.41-35.19-.08-11.94,1.75-23.83,5.41-35.19,3.34-10.52,8.67-20.31,15.7-28.83,6.91-8.25,15.49-14.94,25.18-19.63,9.92-4.87,21.2-7.31,33.83-7.31,7.85-.04,15.66,1.15,23.15,3.52,7.17,2.27,13.9,5.75,19.9,10.29,5.93,4.49,10.98,10.04,14.88,16.37,4.06,6.66,6.73,14.07,7.85,21.79h11.91c0-.36-.36-2.21-1.08-5.55-.96-4.08-2.28-8.06-3.93-11.91-2.22-5.2-4.99-10.14-8.26-14.75-3.88-5.51-8.58-10.4-13.94-14.48-6.37-4.78-13.45-8.53-20.98-11.1C1455.6,1.49,1445.76,0,1434.39,0c-14.44,0-27.38,2.62-38.84,7.85-11.11,4.97-21,12.32-28.96,21.52-8.04,9.46-14.16,20.4-18,32.22-4.22,12.79-6.32,26.19-6.22,39.66-.1,13.47,2,26.87,6.22,39.66M1574.07,14.89v182.99h11.91V14.89h68.22V4.61h-148.07v10.29h67.95ZM1795.5,59.83c-.54-10.65-2.8-19.76-6.77-27.34-3.76-7.33-9.18-13.69-15.83-18.55-6.93-4.94-14.74-8.52-23.01-10.56-9.25-2.32-18.75-3.45-28.29-3.38-7.76.02-15.48.98-23.01,2.84-7.45,1.76-14.54,4.78-20.98,8.93-6.23,4.07-11.42,9.54-15.16,15.98-3.88,6.59-5.82,14.48-5.82,23.68,0,9.2,1.9,16.73,5.68,22.6,3.79,5.87,8.89,10.78,14.89,14.35,6.6,3.9,13.7,6.86,21.11,8.8,7.94,2.16,15.97,4.06,24.09,5.68,8.3,1.62,16.38,3.38,24.23,5.28,7.31,1.7,14.39,4.24,21.11,7.58,5.92,2.91,11.07,7.18,15.02,12.45,3.79,5.14,5.69,11.78,5.68,19.9,0,8.49-1.85,15.52-5.55,21.11-3.56,5.46-8.27,10.08-13.81,13.54-5.58,3.46-11.71,5.93-18.13,7.31-6.08,1.39-12.3,2.12-18.54,2.17-9.2.04-18.38-1-27.34-3.12-8.14-1.83-15.82-5.29-22.6-10.15-6.4-4.68-11.56-10.86-15.02-18-3.61-7.31-5.15-16.29-4.6-26.94h-11.91c-.18,12.45,1.85,23.01,6.09,31.67,4.02,8.39,10.01,15.68,17.46,21.25,7.77,5.68,16.61,9.73,25.99,11.91,10.46,2.5,21.18,3.73,31.94,3.66,7.8-.05,15.57-1,23.15-2.84,7.8-1.8,15.22-4.96,21.92-9.34,6.61-4.35,12.19-10.07,16.38-16.78,4.33-6.85,6.5-15.34,6.5-25.44,0-9.38-1.89-17.19-5.68-23.42-3.74-6.17-8.89-11.37-15.02-15.16-6.58-4.03-13.69-7.13-21.12-9.2-7.85-2.25-15.92-4.19-24.23-5.82-8.12-1.62-16.15-3.34-24.09-5.14-7.29-1.58-14.37-3.98-21.12-7.17-5.81-2.72-10.9-6.75-14.89-11.78-3.79-4.87-5.68-11.19-5.68-18.95,0-7.93,1.71-14.57,5.14-19.9,3.32-5.21,7.82-9.57,13.13-12.72,5.36-3.17,11.22-5.41,17.32-6.63,5.74-1.21,11.59-1.85,17.46-1.9,8.27-.07,16.51.97,24.5,3.11,6.99,1.84,13.57,5.01,19.35,9.34,5.38,4.12,9.78,9.39,12.85,15.43,3.31,6.75,5.11,14.14,5.28,21.65h11.9Z"/>
      </g>
    </g>
  </g>
  <path id="Path_1367" class="cls-1" d="M2015.87,0v13.41l176.11.03-179.55,179.57,9.48,9.48,179.57-179.57v173.54h13.41V.03s-199.01-.03-199.01-.03Z"/>
</svg>