<?xml version="1.0" encoding="UTF-8"?>
<svg id="Layer_1" xmlns="http://www.w3.org/2000/svg" xmlns:xlink="http://www.w3.org/1999/xlink" viewBox="0 0 45.27 37">
  <defs>
    <style>
      .cls-1, .cls-2 {
        fill: none;
      }

      .cls-3 {
        fill: #060706;
      }

      .cls-2 {
        stroke: #000;
      }

      .cls-4 {
        clip-path: url(#clippath);
      }
    </style>
    <clipPath id="clippath">
      <rect class="cls-1" x="10" y="6.87" width="24.35" height="23.25"/>
    </clipPath>
  </defs>
  <g id="Group_35">
    <g id="Rectangle_7">
      <path class="cls-1" d="M18.5,0h8.27c10.22,0,18.5,8.28,18.5,18.5h0c0,10.22-8.28,18.5-18.5,18.5h-8.27C8.28,37,0,28.72,0,18.5h0C0,8.28,8.28,0,18.5,0Z"/>
      <path class="cls-2" d="M18.5.5h8.27c9.94,0,18,8.06,18,18h0c0,9.94-8.06,18-18,18h-8.27C8.56,36.5.5,28.44.5,18.5h0C.5,8.56,8.56.5,18.5.5Z"/>
    </g>
    <g id="Group_2159">
      <g class="cls-4">
        <g id="Group_2158">
          <path id="Path_1366" class="cls-3" d="M34.35,29.42l-6.83-6.81c1.33-1.71,2.05-3.82,2.04-5.99h0c0-5.39-4.39-9.76-9.78-9.75,0,0,0,0-.01,0h-.02c-5.4,0-9.77,4.4-9.76,9.8,0,5.4,4.4,9.77,9.8,9.76h.03c2.67,0,5.22-1.12,7.06-3.06l6.78,6.75.7-.71ZM19.81,25.43h-.03c-4.85,0-8.78-3.93-8.78-8.78s3.93-8.78,8.78-8.78h.02c4.83,0,8.75,3.92,8.76,8.75h0c0,4.85-3.9,8.79-8.75,8.81"/>
        </g>
      </g>
    </g>
  </g>
</svg>